<svg width="24" height="23" viewBox="0 0 24 23" fill="none" xmlns="http://www.w3.org/2000/svg">
<path d="M23.1733 11.5C23.1733 17.8513 18.0246 23 11.6733 23C5.32203 23 0.173301 17.8513 0.173301 11.5C0.173301 5.14873 5.32203 0 11.6733 0C18.0246 0 23.1733 5.14873 23.1733 11.5Z" fill="white"/>
<path d="M21.6733 11.5C21.6733 17.0228 17.1961 21.5 11.6733 21.5C6.15045 21.5 1.6733 17.0228 1.6733 11.5C1.6733 5.97715 6.15045 1.5 11.6733 1.5C17.1961 1.5 21.6733 5.97715 21.6733 11.5Z" stroke="#1B1F26" stroke-opacity="0.72" stroke-width="3"/>
<path d="M13.5 6.5L11 12L16 16" stroke="#5B5E63" stroke-width="2"/>
</svg>
